<mxfile host="app.diagrams.net" modified="2024-04-04T07:45:44.536Z" agent="Mozilla/5.0 (Windows NT 10.0; Win64; x64) AppleWebKit/537.36 (KHTML, like Gecko) Chrome/101.0.4951.64 Safari/537.36" etag="qWB7rXb0zeY02JdhPP76" version="24.2.2" type="github" pages="2">
  <diagram name="第 1 页" id="EAWSbD7gTgA2uPV_uzWH">
    <mxGraphModel dx="1062" dy="785" grid="1" gridSize="10" guides="1" tooltips="1" connect="1" arrows="1" fold="1" page="1" pageScale="1" pageWidth="827" pageHeight="1169" math="0" shadow="0">
      <root>
        <mxCell id="0" />
        <mxCell id="1" parent="0" />
        <mxCell id="qQpUFStk9n5sEUfaxUnL-1" value="" style="rounded=1;whiteSpace=wrap;html=1;shadow=1;" parent="1" vertex="1">
          <mxGeometry x="395" y="80" width="300" height="60" as="geometry" />
        </mxCell>
        <mxCell id="qQpUFStk9n5sEUfaxUnL-2" value="G" style="ellipse;whiteSpace=wrap;html=1;aspect=fixed;fillColor=#d5e8d4;strokeColor=#82b366;shadow=1;" parent="1" vertex="1">
          <mxGeometry x="405" y="90" width="40" height="40" as="geometry" />
        </mxCell>
        <mxCell id="qQpUFStk9n5sEUfaxUnL-3" value="G" style="ellipse;whiteSpace=wrap;html=1;aspect=fixed;fillColor=#d5e8d4;strokeColor=#82b366;shadow=1;" parent="1" vertex="1">
          <mxGeometry x="455" y="90" width="40" height="40" as="geometry" />
        </mxCell>
        <mxCell id="qQpUFStk9n5sEUfaxUnL-4" value="G" style="ellipse;whiteSpace=wrap;html=1;aspect=fixed;fillColor=#d5e8d4;strokeColor=#82b366;shadow=1;" parent="1" vertex="1">
          <mxGeometry x="605" y="90" width="40" height="40" as="geometry" />
        </mxCell>
        <mxCell id="qQpUFStk9n5sEUfaxUnL-5" value="G" style="ellipse;whiteSpace=wrap;html=1;aspect=fixed;fillColor=#d5e8d4;strokeColor=#82b366;shadow=1;" parent="1" vertex="1">
          <mxGeometry x="505" y="90" width="40" height="40" as="geometry" />
        </mxCell>
        <mxCell id="qQpUFStk9n5sEUfaxUnL-6" value="G" style="ellipse;whiteSpace=wrap;html=1;aspect=fixed;fillColor=#d5e8d4;strokeColor=#82b366;shadow=1;" parent="1" vertex="1">
          <mxGeometry x="555" y="90" width="40" height="40" as="geometry" />
        </mxCell>
        <mxCell id="qQpUFStk9n5sEUfaxUnL-7" value="" style="endArrow=classic;html=1;rounded=0;shadow=1;" parent="1" edge="1">
          <mxGeometry width="50" height="50" relative="1" as="geometry">
            <mxPoint x="345" y="109.5" as="sourcePoint" />
            <mxPoint x="395" y="109.5" as="targetPoint" />
          </mxGeometry>
        </mxCell>
        <mxCell id="qQpUFStk9n5sEUfaxUnL-8" value="" style="endArrow=classic;html=1;rounded=0;shadow=1;" parent="1" edge="1">
          <mxGeometry width="50" height="50" relative="1" as="geometry">
            <mxPoint x="695" y="109.64" as="sourcePoint" />
            <mxPoint x="745" y="109.64" as="targetPoint" />
          </mxGeometry>
        </mxCell>
        <mxCell id="qQpUFStk9n5sEUfaxUnL-9" value="入队" style="text;html=1;align=center;verticalAlign=middle;resizable=0;points=[];autosize=1;strokeColor=none;fillColor=none;shadow=1;" parent="1" vertex="1">
          <mxGeometry x="330" y="108" width="50" height="30" as="geometry" />
        </mxCell>
        <mxCell id="qQpUFStk9n5sEUfaxUnL-10" value="出队" style="text;html=1;align=center;verticalAlign=middle;resizable=0;points=[];autosize=1;strokeColor=none;fillColor=none;shadow=1;" parent="1" vertex="1">
          <mxGeometry x="690" y="108" width="50" height="30" as="geometry" />
        </mxCell>
        <mxCell id="qQpUFStk9n5sEUfaxUnL-11" value="全局队列" style="text;html=1;align=center;verticalAlign=middle;resizable=0;points=[];autosize=1;strokeColor=none;fillColor=none;shadow=1;" parent="1" vertex="1">
          <mxGeometry x="510" y="140" width="70" height="30" as="geometry" />
        </mxCell>
        <mxCell id="qQpUFStk9n5sEUfaxUnL-12" value="" style="rounded=1;whiteSpace=wrap;html=1;shadow=1;" parent="1" vertex="1">
          <mxGeometry x="402.5" y="170" width="55" height="170" as="geometry" />
        </mxCell>
        <mxCell id="qQpUFStk9n5sEUfaxUnL-15" value="G" style="ellipse;whiteSpace=wrap;html=1;aspect=fixed;fillColor=#d5e8d4;strokeColor=#82b366;shadow=1;" parent="1" vertex="1">
          <mxGeometry x="410" y="290" width="40" height="40" as="geometry" />
        </mxCell>
        <mxCell id="qQpUFStk9n5sEUfaxUnL-16" value="G" style="ellipse;whiteSpace=wrap;html=1;aspect=fixed;fillColor=#d5e8d4;strokeColor=#82b366;shadow=1;" parent="1" vertex="1">
          <mxGeometry x="410" y="240" width="40" height="40" as="geometry" />
        </mxCell>
        <mxCell id="qQpUFStk9n5sEUfaxUnL-17" value="G" style="ellipse;whiteSpace=wrap;html=1;aspect=fixed;fillColor=#d5e8d4;strokeColor=#82b366;shadow=1;" parent="1" vertex="1">
          <mxGeometry x="410" y="185" width="40" height="40" as="geometry" />
        </mxCell>
        <mxCell id="qQpUFStk9n5sEUfaxUnL-20" value="P" style="rounded=0;whiteSpace=wrap;html=1;fillColor=#f8cecc;strokeColor=#b85450;shadow=1;" parent="1" vertex="1">
          <mxGeometry x="405" y="390" width="50" height="50" as="geometry" />
        </mxCell>
        <mxCell id="qQpUFStk9n5sEUfaxUnL-21" value="" style="endArrow=classic;html=1;rounded=0;exitX=0.5;exitY=1;exitDx=0;exitDy=0;entryX=0.5;entryY=0;entryDx=0;entryDy=0;shadow=1;" parent="1" source="qQpUFStk9n5sEUfaxUnL-12" target="qQpUFStk9n5sEUfaxUnL-20" edge="1">
          <mxGeometry width="50" height="50" relative="1" as="geometry">
            <mxPoint x="457.5" y="400" as="sourcePoint" />
            <mxPoint x="507.5" y="350" as="targetPoint" />
          </mxGeometry>
        </mxCell>
        <mxCell id="qQpUFStk9n5sEUfaxUnL-50" value="" style="rounded=1;whiteSpace=wrap;html=1;shadow=1;" parent="1" vertex="1">
          <mxGeometry x="492.5" y="170" width="55" height="170" as="geometry" />
        </mxCell>
        <mxCell id="qQpUFStk9n5sEUfaxUnL-51" value="G" style="ellipse;whiteSpace=wrap;html=1;aspect=fixed;fillColor=#d5e8d4;strokeColor=#82b366;shadow=1;" parent="1" vertex="1">
          <mxGeometry x="500" y="290" width="40" height="40" as="geometry" />
        </mxCell>
        <mxCell id="qQpUFStk9n5sEUfaxUnL-52" value="G" style="ellipse;whiteSpace=wrap;html=1;aspect=fixed;fillColor=#d5e8d4;strokeColor=#82b366;shadow=1;" parent="1" vertex="1">
          <mxGeometry x="500" y="240" width="40" height="40" as="geometry" />
        </mxCell>
        <mxCell id="qQpUFStk9n5sEUfaxUnL-56" value="P" style="rounded=0;whiteSpace=wrap;html=1;fillColor=#f8cecc;strokeColor=#b85450;shadow=1;" parent="1" vertex="1">
          <mxGeometry x="495" y="390" width="50" height="50" as="geometry" />
        </mxCell>
        <mxCell id="qQpUFStk9n5sEUfaxUnL-57" value="" style="endArrow=classic;html=1;rounded=0;exitX=0.5;exitY=1;exitDx=0;exitDy=0;entryX=0.5;entryY=0;entryDx=0;entryDy=0;shadow=1;" parent="1" source="qQpUFStk9n5sEUfaxUnL-50" target="qQpUFStk9n5sEUfaxUnL-56" edge="1">
          <mxGeometry width="50" height="50" relative="1" as="geometry">
            <mxPoint x="547.5" y="400" as="sourcePoint" />
            <mxPoint x="597.5" y="350" as="targetPoint" />
          </mxGeometry>
        </mxCell>
        <mxCell id="qQpUFStk9n5sEUfaxUnL-58" value="" style="rounded=1;whiteSpace=wrap;html=1;shadow=1;" parent="1" vertex="1">
          <mxGeometry x="572.5" y="170" width="55" height="170" as="geometry" />
        </mxCell>
        <mxCell id="qQpUFStk9n5sEUfaxUnL-59" value="G" style="ellipse;whiteSpace=wrap;html=1;aspect=fixed;fillColor=#d5e8d4;strokeColor=#82b366;shadow=1;" parent="1" vertex="1">
          <mxGeometry x="580" y="290" width="40" height="40" as="geometry" />
        </mxCell>
        <mxCell id="qQpUFStk9n5sEUfaxUnL-60" value="G" style="ellipse;whiteSpace=wrap;html=1;aspect=fixed;fillColor=#d5e8d4;strokeColor=#82b366;shadow=1;" parent="1" vertex="1">
          <mxGeometry x="580" y="240" width="40" height="40" as="geometry" />
        </mxCell>
        <mxCell id="qQpUFStk9n5sEUfaxUnL-64" value="P" style="rounded=0;whiteSpace=wrap;html=1;fillColor=#f8cecc;strokeColor=#b85450;shadow=1;" parent="1" vertex="1">
          <mxGeometry x="575" y="390" width="50" height="50" as="geometry" />
        </mxCell>
        <mxCell id="qQpUFStk9n5sEUfaxUnL-65" value="" style="endArrow=classic;html=1;rounded=0;exitX=0.5;exitY=1;exitDx=0;exitDy=0;entryX=0.5;entryY=0;entryDx=0;entryDy=0;shadow=1;" parent="1" source="qQpUFStk9n5sEUfaxUnL-58" target="qQpUFStk9n5sEUfaxUnL-64" edge="1">
          <mxGeometry width="50" height="50" relative="1" as="geometry">
            <mxPoint x="627.5" y="400" as="sourcePoint" />
            <mxPoint x="677.5" y="350" as="targetPoint" />
          </mxGeometry>
        </mxCell>
        <mxCell id="qQpUFStk9n5sEUfaxUnL-68" value="" style="group;shadow=1;" parent="1" vertex="1" connectable="0">
          <mxGeometry x="395" y="495" width="70" height="66.25" as="geometry" />
        </mxCell>
        <mxCell id="qQpUFStk9n5sEUfaxUnL-66" value="" style="triangle;whiteSpace=wrap;html=1;rotation=-90;fillColor=#fff2cc;strokeColor=#d6b656;shadow=1;" parent="qQpUFStk9n5sEUfaxUnL-68" vertex="1">
          <mxGeometry x="8.75" y="-8.75" width="52.5" height="70" as="geometry" />
        </mxCell>
        <mxCell id="qQpUFStk9n5sEUfaxUnL-96" style="edgeStyle=orthogonalEdgeStyle;rounded=0;orthogonalLoop=1;jettySize=auto;html=1;shadow=1;" parent="qQpUFStk9n5sEUfaxUnL-68" source="qQpUFStk9n5sEUfaxUnL-67" edge="1">
          <mxGeometry relative="1" as="geometry">
            <mxPoint x="35" y="75" as="targetPoint" />
          </mxGeometry>
        </mxCell>
        <mxCell id="qQpUFStk9n5sEUfaxUnL-67" value="M1" style="text;html=1;align=center;verticalAlign=middle;resizable=0;points=[];autosize=1;strokeColor=none;fillColor=none;fontSize=20;shadow=1;" parent="qQpUFStk9n5sEUfaxUnL-68" vertex="1">
          <mxGeometry x="10" y="13.13" width="50" height="40" as="geometry" />
        </mxCell>
        <mxCell id="qQpUFStk9n5sEUfaxUnL-69" value="" style="group;shadow=1;" parent="1" vertex="1" connectable="0">
          <mxGeometry x="652.5" y="495" width="70" height="66.25" as="geometry" />
        </mxCell>
        <mxCell id="qQpUFStk9n5sEUfaxUnL-70" value="" style="triangle;whiteSpace=wrap;html=1;rotation=-90;fillColor=#fff2cc;strokeColor=#d6b656;shadow=1;" parent="qQpUFStk9n5sEUfaxUnL-69" vertex="1">
          <mxGeometry x="8.75" y="-8.75" width="52.5" height="70" as="geometry" />
        </mxCell>
        <mxCell id="qQpUFStk9n5sEUfaxUnL-71" value="M4" style="text;html=1;align=center;verticalAlign=middle;resizable=0;points=[];autosize=1;strokeColor=none;fillColor=none;fontSize=20;shadow=1;" parent="qQpUFStk9n5sEUfaxUnL-69" vertex="1">
          <mxGeometry x="10" y="13.13" width="50" height="40" as="geometry" />
        </mxCell>
        <mxCell id="qQpUFStk9n5sEUfaxUnL-72" value="" style="group;shadow=1;" parent="1" vertex="1" connectable="0">
          <mxGeometry x="485" y="495" width="70" height="66.25" as="geometry" />
        </mxCell>
        <mxCell id="qQpUFStk9n5sEUfaxUnL-73" value="" style="triangle;whiteSpace=wrap;html=1;rotation=-90;fillColor=#fff2cc;strokeColor=#d6b656;shadow=1;" parent="qQpUFStk9n5sEUfaxUnL-72" vertex="1">
          <mxGeometry x="8.75" y="-8.75" width="52.5" height="70" as="geometry" />
        </mxCell>
        <mxCell id="qQpUFStk9n5sEUfaxUnL-97" style="edgeStyle=orthogonalEdgeStyle;rounded=0;orthogonalLoop=1;jettySize=auto;html=1;shadow=1;" parent="qQpUFStk9n5sEUfaxUnL-72" source="qQpUFStk9n5sEUfaxUnL-74" edge="1">
          <mxGeometry relative="1" as="geometry">
            <mxPoint x="35" y="85" as="targetPoint" />
          </mxGeometry>
        </mxCell>
        <mxCell id="qQpUFStk9n5sEUfaxUnL-74" value="M2" style="text;html=1;align=center;verticalAlign=middle;resizable=0;points=[];autosize=1;strokeColor=none;fillColor=none;fontSize=20;shadow=1;" parent="qQpUFStk9n5sEUfaxUnL-72" vertex="1">
          <mxGeometry x="10" y="13.13" width="50" height="40" as="geometry" />
        </mxCell>
        <mxCell id="qQpUFStk9n5sEUfaxUnL-75" value="" style="group;shadow=1;" parent="1" vertex="1" connectable="0">
          <mxGeometry x="565" y="495" width="70" height="66.25" as="geometry" />
        </mxCell>
        <mxCell id="qQpUFStk9n5sEUfaxUnL-76" value="" style="triangle;whiteSpace=wrap;html=1;rotation=-90;fillColor=#fff2cc;strokeColor=#d6b656;shadow=1;" parent="qQpUFStk9n5sEUfaxUnL-75" vertex="1">
          <mxGeometry x="8.75" y="-8.75" width="52.5" height="70" as="geometry" />
        </mxCell>
        <mxCell id="qQpUFStk9n5sEUfaxUnL-98" style="edgeStyle=orthogonalEdgeStyle;rounded=0;orthogonalLoop=1;jettySize=auto;html=1;shadow=1;" parent="qQpUFStk9n5sEUfaxUnL-75" source="qQpUFStk9n5sEUfaxUnL-77" edge="1">
          <mxGeometry relative="1" as="geometry">
            <mxPoint x="35" y="85" as="targetPoint" />
          </mxGeometry>
        </mxCell>
        <mxCell id="qQpUFStk9n5sEUfaxUnL-77" value="M3" style="text;html=1;align=center;verticalAlign=middle;resizable=0;points=[];autosize=1;strokeColor=none;fillColor=none;fontSize=20;shadow=1;" parent="qQpUFStk9n5sEUfaxUnL-75" vertex="1">
          <mxGeometry x="10" y="13.13" width="50" height="40" as="geometry" />
        </mxCell>
        <mxCell id="qQpUFStk9n5sEUfaxUnL-86" value="" style="endArrow=classic;html=1;rounded=0;exitX=0.5;exitY=1;exitDx=0;exitDy=0;entryX=1;entryY=0.5;entryDx=0;entryDy=0;shadow=1;" parent="1" source="qQpUFStk9n5sEUfaxUnL-20" target="qQpUFStk9n5sEUfaxUnL-66" edge="1">
          <mxGeometry width="50" height="50" relative="1" as="geometry">
            <mxPoint x="375" y="447" as="sourcePoint" />
            <mxPoint x="425" y="397" as="targetPoint" />
          </mxGeometry>
        </mxCell>
        <mxCell id="qQpUFStk9n5sEUfaxUnL-87" value="" style="endArrow=classic;html=1;rounded=0;exitX=0.5;exitY=1;exitDx=0;exitDy=0;entryX=1;entryY=0.5;entryDx=0;entryDy=0;shadow=1;" parent="1" edge="1">
          <mxGeometry width="50" height="50" relative="1" as="geometry">
            <mxPoint x="599.41" y="440" as="sourcePoint" />
            <mxPoint x="599.41" y="495" as="targetPoint" />
          </mxGeometry>
        </mxCell>
        <mxCell id="qQpUFStk9n5sEUfaxUnL-88" value="" style="endArrow=classic;html=1;rounded=0;exitX=0.5;exitY=1;exitDx=0;exitDy=0;entryX=1;entryY=0.5;entryDx=0;entryDy=0;shadow=1;" parent="1" edge="1">
          <mxGeometry width="50" height="50" relative="1" as="geometry">
            <mxPoint x="519.41" y="440" as="sourcePoint" />
            <mxPoint x="519.41" y="495" as="targetPoint" />
          </mxGeometry>
        </mxCell>
        <mxCell id="qQpUFStk9n5sEUfaxUnL-89" value="操作系统调度器" style="rounded=0;whiteSpace=wrap;html=1;fillColor=#e1d5e7;strokeColor=#9673a6;shadow=1;" parent="1" vertex="1">
          <mxGeometry x="355" y="575" width="470" height="45" as="geometry" />
        </mxCell>
        <mxCell id="qQpUFStk9n5sEUfaxUnL-90" value="CPU" style="rounded=1;whiteSpace=wrap;html=1;fillColor=#dae8fc;strokeColor=#6c8ebf;shadow=1;" parent="1" vertex="1">
          <mxGeometry x="385" y="670" width="70" height="20" as="geometry" />
        </mxCell>
        <mxCell id="qQpUFStk9n5sEUfaxUnL-91" value="CPU" style="rounded=1;whiteSpace=wrap;html=1;fillColor=#dae8fc;strokeColor=#6c8ebf;shadow=1;" parent="1" vertex="1">
          <mxGeometry x="658.5" y="670" width="70" height="20" as="geometry" />
        </mxCell>
        <mxCell id="qQpUFStk9n5sEUfaxUnL-92" value="CPU" style="rounded=1;whiteSpace=wrap;html=1;fillColor=#dae8fc;strokeColor=#6c8ebf;shadow=1;" parent="1" vertex="1">
          <mxGeometry x="567" y="670" width="70" height="20" as="geometry" />
        </mxCell>
        <mxCell id="qQpUFStk9n5sEUfaxUnL-93" value="CPU" style="rounded=1;whiteSpace=wrap;html=1;fillColor=#dae8fc;strokeColor=#6c8ebf;shadow=1;" parent="1" vertex="1">
          <mxGeometry x="476" y="670" width="70" height="20" as="geometry" />
        </mxCell>
        <mxCell id="qQpUFStk9n5sEUfaxUnL-99" style="edgeStyle=orthogonalEdgeStyle;rounded=0;orthogonalLoop=1;jettySize=auto;html=1;entryX=0.139;entryY=0.916;entryDx=0;entryDy=0;entryPerimeter=0;shadow=1;" parent="1" source="qQpUFStk9n5sEUfaxUnL-90" target="qQpUFStk9n5sEUfaxUnL-89" edge="1">
          <mxGeometry relative="1" as="geometry" />
        </mxCell>
        <mxCell id="qQpUFStk9n5sEUfaxUnL-101" style="edgeStyle=orthogonalEdgeStyle;rounded=0;orthogonalLoop=1;jettySize=auto;html=1;entryX=0.333;entryY=0.886;entryDx=0;entryDy=0;entryPerimeter=0;shadow=1;" parent="1" source="qQpUFStk9n5sEUfaxUnL-93" target="qQpUFStk9n5sEUfaxUnL-89" edge="1">
          <mxGeometry relative="1" as="geometry" />
        </mxCell>
        <mxCell id="qQpUFStk9n5sEUfaxUnL-102" style="edgeStyle=orthogonalEdgeStyle;rounded=0;orthogonalLoop=1;jettySize=auto;html=1;entryX=0.526;entryY=0.886;entryDx=0;entryDy=0;entryPerimeter=0;shadow=1;" parent="1" source="qQpUFStk9n5sEUfaxUnL-92" target="qQpUFStk9n5sEUfaxUnL-89" edge="1">
          <mxGeometry relative="1" as="geometry" />
        </mxCell>
        <mxCell id="qQpUFStk9n5sEUfaxUnL-103" style="edgeStyle=orthogonalEdgeStyle;rounded=0;orthogonalLoop=1;jettySize=auto;html=1;entryX=0.719;entryY=1.005;entryDx=0;entryDy=0;entryPerimeter=0;shadow=1;" parent="1" source="qQpUFStk9n5sEUfaxUnL-91" target="qQpUFStk9n5sEUfaxUnL-89" edge="1">
          <mxGeometry relative="1" as="geometry" />
        </mxCell>
        <mxCell id="qQpUFStk9n5sEUfaxUnL-104" value="&lt;font style=&quot;font-size: 31px;&quot;&gt;GMP模型&lt;/font&gt;" style="text;html=1;align=center;verticalAlign=middle;resizable=0;points=[];autosize=1;strokeColor=none;fillColor=none;fontSize=31;shadow=1;" parent="1" vertex="1">
          <mxGeometry x="477" y="690" width="160" height="50" as="geometry" />
        </mxCell>
        <mxCell id="qQpUFStk9n5sEUfaxUnL-105" value="本&lt;div&gt;地&lt;/div&gt;&lt;div&gt;P&lt;/div&gt;&lt;div&gt;队&lt;/div&gt;&lt;div&gt;列&lt;/div&gt;" style="text;html=1;align=center;verticalAlign=middle;resizable=0;points=[];autosize=1;strokeColor=none;fillColor=none;fontSize=21;textDirection=rtl;shadow=1;" parent="1" vertex="1">
          <mxGeometry x="655" y="185" width="40" height="140" as="geometry" />
        </mxCell>
        <mxCell id="I_c4RysP7cvk3nYu3z4r-1" value="" style="rounded=1;whiteSpace=wrap;html=1;shadow=1;" vertex="1" parent="1">
          <mxGeometry x="395" y="80" width="300" height="60" as="geometry" />
        </mxCell>
        <mxCell id="I_c4RysP7cvk3nYu3z4r-2" value="G" style="ellipse;whiteSpace=wrap;html=1;aspect=fixed;fillColor=#d5e8d4;strokeColor=#82b366;shadow=1;" vertex="1" parent="1">
          <mxGeometry x="405" y="90" width="40" height="40" as="geometry" />
        </mxCell>
        <mxCell id="I_c4RysP7cvk3nYu3z4r-3" value="G" style="ellipse;whiteSpace=wrap;html=1;aspect=fixed;fillColor=#d5e8d4;strokeColor=#82b366;shadow=1;" vertex="1" parent="1">
          <mxGeometry x="455" y="90" width="40" height="40" as="geometry" />
        </mxCell>
        <mxCell id="I_c4RysP7cvk3nYu3z4r-4" value="G" style="ellipse;whiteSpace=wrap;html=1;aspect=fixed;fillColor=#d5e8d4;strokeColor=#82b366;shadow=1;" vertex="1" parent="1">
          <mxGeometry x="605" y="90" width="40" height="40" as="geometry" />
        </mxCell>
        <mxCell id="I_c4RysP7cvk3nYu3z4r-5" value="G" style="ellipse;whiteSpace=wrap;html=1;aspect=fixed;fillColor=#d5e8d4;strokeColor=#82b366;shadow=1;" vertex="1" parent="1">
          <mxGeometry x="505" y="90" width="40" height="40" as="geometry" />
        </mxCell>
        <mxCell id="I_c4RysP7cvk3nYu3z4r-6" value="G" style="ellipse;whiteSpace=wrap;html=1;aspect=fixed;fillColor=#d5e8d4;strokeColor=#82b366;shadow=1;" vertex="1" parent="1">
          <mxGeometry x="555" y="90" width="40" height="40" as="geometry" />
        </mxCell>
        <mxCell id="I_c4RysP7cvk3nYu3z4r-7" value="" style="endArrow=classic;html=1;rounded=0;shadow=1;" edge="1" parent="1">
          <mxGeometry width="50" height="50" relative="1" as="geometry">
            <mxPoint x="345" y="109.5" as="sourcePoint" />
            <mxPoint x="395" y="109.5" as="targetPoint" />
          </mxGeometry>
        </mxCell>
        <mxCell id="I_c4RysP7cvk3nYu3z4r-8" value="" style="endArrow=classic;html=1;rounded=0;shadow=1;" edge="1" parent="1">
          <mxGeometry width="50" height="50" relative="1" as="geometry">
            <mxPoint x="695" y="109.64" as="sourcePoint" />
            <mxPoint x="745" y="109.64" as="targetPoint" />
          </mxGeometry>
        </mxCell>
        <mxCell id="I_c4RysP7cvk3nYu3z4r-9" value="入队" style="text;html=1;align=center;verticalAlign=middle;resizable=0;points=[];autosize=1;strokeColor=none;fillColor=none;shadow=1;" vertex="1" parent="1">
          <mxGeometry x="330" y="108" width="50" height="30" as="geometry" />
        </mxCell>
        <mxCell id="I_c4RysP7cvk3nYu3z4r-10" value="出队" style="text;html=1;align=center;verticalAlign=middle;resizable=0;points=[];autosize=1;strokeColor=none;fillColor=none;shadow=1;" vertex="1" parent="1">
          <mxGeometry x="690" y="108" width="50" height="30" as="geometry" />
        </mxCell>
        <mxCell id="I_c4RysP7cvk3nYu3z4r-11" value="全局队列" style="text;html=1;align=center;verticalAlign=middle;resizable=0;points=[];autosize=1;strokeColor=none;fillColor=none;shadow=1;" vertex="1" parent="1">
          <mxGeometry x="510" y="140" width="70" height="30" as="geometry" />
        </mxCell>
        <mxCell id="I_c4RysP7cvk3nYu3z4r-12" value="" style="rounded=1;whiteSpace=wrap;html=1;shadow=1;" vertex="1" parent="1">
          <mxGeometry x="402.5" y="170" width="55" height="170" as="geometry" />
        </mxCell>
        <mxCell id="I_c4RysP7cvk3nYu3z4r-13" value="G" style="ellipse;whiteSpace=wrap;html=1;aspect=fixed;fillColor=#d5e8d4;strokeColor=#82b366;shadow=1;" vertex="1" parent="1">
          <mxGeometry x="410" y="290" width="40" height="40" as="geometry" />
        </mxCell>
        <mxCell id="I_c4RysP7cvk3nYu3z4r-14" value="G" style="ellipse;whiteSpace=wrap;html=1;aspect=fixed;fillColor=#d5e8d4;strokeColor=#82b366;shadow=1;" vertex="1" parent="1">
          <mxGeometry x="410" y="240" width="40" height="40" as="geometry" />
        </mxCell>
        <mxCell id="I_c4RysP7cvk3nYu3z4r-15" value="G" style="ellipse;whiteSpace=wrap;html=1;aspect=fixed;fillColor=#d5e8d4;strokeColor=#82b366;shadow=1;" vertex="1" parent="1">
          <mxGeometry x="410" y="185" width="40" height="40" as="geometry" />
        </mxCell>
        <mxCell id="I_c4RysP7cvk3nYu3z4r-16" value="P" style="rounded=0;whiteSpace=wrap;html=1;fillColor=#f8cecc;strokeColor=#b85450;shadow=1;" vertex="1" parent="1">
          <mxGeometry x="405" y="390" width="50" height="50" as="geometry" />
        </mxCell>
        <mxCell id="I_c4RysP7cvk3nYu3z4r-17" value="" style="endArrow=classic;html=1;rounded=0;exitX=0.5;exitY=1;exitDx=0;exitDy=0;entryX=0.5;entryY=0;entryDx=0;entryDy=0;shadow=1;" edge="1" parent="1" source="I_c4RysP7cvk3nYu3z4r-12" target="I_c4RysP7cvk3nYu3z4r-16">
          <mxGeometry width="50" height="50" relative="1" as="geometry">
            <mxPoint x="457.5" y="400" as="sourcePoint" />
            <mxPoint x="507.5" y="350" as="targetPoint" />
          </mxGeometry>
        </mxCell>
        <mxCell id="I_c4RysP7cvk3nYu3z4r-18" value="" style="rounded=1;whiteSpace=wrap;html=1;shadow=1;" vertex="1" parent="1">
          <mxGeometry x="492.5" y="170" width="55" height="170" as="geometry" />
        </mxCell>
        <mxCell id="I_c4RysP7cvk3nYu3z4r-19" value="G" style="ellipse;whiteSpace=wrap;html=1;aspect=fixed;fillColor=#d5e8d4;strokeColor=#82b366;shadow=1;" vertex="1" parent="1">
          <mxGeometry x="500" y="290" width="40" height="40" as="geometry" />
        </mxCell>
        <mxCell id="I_c4RysP7cvk3nYu3z4r-20" value="G" style="ellipse;whiteSpace=wrap;html=1;aspect=fixed;fillColor=#d5e8d4;strokeColor=#82b366;shadow=1;" vertex="1" parent="1">
          <mxGeometry x="500" y="240" width="40" height="40" as="geometry" />
        </mxCell>
        <mxCell id="I_c4RysP7cvk3nYu3z4r-21" value="P" style="rounded=0;whiteSpace=wrap;html=1;fillColor=#f8cecc;strokeColor=#b85450;shadow=1;" vertex="1" parent="1">
          <mxGeometry x="495" y="390" width="50" height="50" as="geometry" />
        </mxCell>
        <mxCell id="I_c4RysP7cvk3nYu3z4r-22" value="" style="endArrow=classic;html=1;rounded=0;exitX=0.5;exitY=1;exitDx=0;exitDy=0;entryX=0.5;entryY=0;entryDx=0;entryDy=0;shadow=1;" edge="1" parent="1" source="I_c4RysP7cvk3nYu3z4r-18" target="I_c4RysP7cvk3nYu3z4r-21">
          <mxGeometry width="50" height="50" relative="1" as="geometry">
            <mxPoint x="547.5" y="400" as="sourcePoint" />
            <mxPoint x="597.5" y="350" as="targetPoint" />
          </mxGeometry>
        </mxCell>
        <mxCell id="I_c4RysP7cvk3nYu3z4r-23" value="" style="rounded=1;whiteSpace=wrap;html=1;shadow=1;" vertex="1" parent="1">
          <mxGeometry x="572.5" y="170" width="55" height="170" as="geometry" />
        </mxCell>
        <mxCell id="I_c4RysP7cvk3nYu3z4r-24" value="G" style="ellipse;whiteSpace=wrap;html=1;aspect=fixed;fillColor=#d5e8d4;strokeColor=#82b366;shadow=1;" vertex="1" parent="1">
          <mxGeometry x="580" y="290" width="40" height="40" as="geometry" />
        </mxCell>
        <mxCell id="I_c4RysP7cvk3nYu3z4r-25" value="G" style="ellipse;whiteSpace=wrap;html=1;aspect=fixed;fillColor=#d5e8d4;strokeColor=#82b366;shadow=1;" vertex="1" parent="1">
          <mxGeometry x="580" y="240" width="40" height="40" as="geometry" />
        </mxCell>
        <mxCell id="I_c4RysP7cvk3nYu3z4r-26" value="P" style="rounded=0;whiteSpace=wrap;html=1;fillColor=#f8cecc;strokeColor=#b85450;shadow=1;" vertex="1" parent="1">
          <mxGeometry x="575" y="390" width="50" height="50" as="geometry" />
        </mxCell>
        <mxCell id="I_c4RysP7cvk3nYu3z4r-27" value="" style="endArrow=classic;html=1;rounded=0;exitX=0.5;exitY=1;exitDx=0;exitDy=0;entryX=0.5;entryY=0;entryDx=0;entryDy=0;shadow=1;" edge="1" parent="1" source="I_c4RysP7cvk3nYu3z4r-23" target="I_c4RysP7cvk3nYu3z4r-26">
          <mxGeometry width="50" height="50" relative="1" as="geometry">
            <mxPoint x="627.5" y="400" as="sourcePoint" />
            <mxPoint x="677.5" y="350" as="targetPoint" />
          </mxGeometry>
        </mxCell>
        <mxCell id="I_c4RysP7cvk3nYu3z4r-28" value="" style="group;shadow=1;" vertex="1" connectable="0" parent="1">
          <mxGeometry x="395" y="495" width="70" height="66.25" as="geometry" />
        </mxCell>
        <mxCell id="I_c4RysP7cvk3nYu3z4r-29" value="" style="triangle;whiteSpace=wrap;html=1;rotation=-90;fillColor=#fff2cc;strokeColor=#d6b656;shadow=1;" vertex="1" parent="I_c4RysP7cvk3nYu3z4r-28">
          <mxGeometry x="8.75" y="-8.75" width="52.5" height="70" as="geometry" />
        </mxCell>
        <mxCell id="I_c4RysP7cvk3nYu3z4r-30" style="edgeStyle=orthogonalEdgeStyle;rounded=0;orthogonalLoop=1;jettySize=auto;html=1;shadow=1;" edge="1" parent="I_c4RysP7cvk3nYu3z4r-28" source="I_c4RysP7cvk3nYu3z4r-31">
          <mxGeometry relative="1" as="geometry">
            <mxPoint x="35" y="75" as="targetPoint" />
          </mxGeometry>
        </mxCell>
        <mxCell id="I_c4RysP7cvk3nYu3z4r-31" value="M1" style="text;html=1;align=center;verticalAlign=middle;resizable=0;points=[];autosize=1;strokeColor=none;fillColor=none;fontSize=20;shadow=1;" vertex="1" parent="I_c4RysP7cvk3nYu3z4r-28">
          <mxGeometry x="10" y="13.13" width="50" height="40" as="geometry" />
        </mxCell>
        <mxCell id="I_c4RysP7cvk3nYu3z4r-32" value="" style="group;shadow=1;" vertex="1" connectable="0" parent="1">
          <mxGeometry x="652.5" y="495" width="70" height="66.25" as="geometry" />
        </mxCell>
        <mxCell id="I_c4RysP7cvk3nYu3z4r-33" value="" style="triangle;whiteSpace=wrap;html=1;rotation=-90;fillColor=#fff2cc;strokeColor=#d6b656;shadow=1;" vertex="1" parent="I_c4RysP7cvk3nYu3z4r-32">
          <mxGeometry x="8.75" y="-8.75" width="52.5" height="70" as="geometry" />
        </mxCell>
        <mxCell id="I_c4RysP7cvk3nYu3z4r-34" value="M4" style="text;html=1;align=center;verticalAlign=middle;resizable=0;points=[];autosize=1;strokeColor=none;fillColor=none;fontSize=20;shadow=1;" vertex="1" parent="I_c4RysP7cvk3nYu3z4r-32">
          <mxGeometry x="10" y="13.13" width="50" height="40" as="geometry" />
        </mxCell>
        <mxCell id="I_c4RysP7cvk3nYu3z4r-35" value="" style="group;shadow=1;" vertex="1" connectable="0" parent="1">
          <mxGeometry x="485" y="495" width="70" height="66.25" as="geometry" />
        </mxCell>
        <mxCell id="I_c4RysP7cvk3nYu3z4r-36" value="" style="triangle;whiteSpace=wrap;html=1;rotation=-90;fillColor=#fff2cc;strokeColor=#d6b656;shadow=1;" vertex="1" parent="I_c4RysP7cvk3nYu3z4r-35">
          <mxGeometry x="8.75" y="-8.75" width="52.5" height="70" as="geometry" />
        </mxCell>
        <mxCell id="I_c4RysP7cvk3nYu3z4r-37" style="edgeStyle=orthogonalEdgeStyle;rounded=0;orthogonalLoop=1;jettySize=auto;html=1;shadow=1;" edge="1" parent="I_c4RysP7cvk3nYu3z4r-35" source="I_c4RysP7cvk3nYu3z4r-38">
          <mxGeometry relative="1" as="geometry">
            <mxPoint x="35" y="85" as="targetPoint" />
          </mxGeometry>
        </mxCell>
        <mxCell id="I_c4RysP7cvk3nYu3z4r-38" value="M2" style="text;html=1;align=center;verticalAlign=middle;resizable=0;points=[];autosize=1;strokeColor=none;fillColor=none;fontSize=20;shadow=1;" vertex="1" parent="I_c4RysP7cvk3nYu3z4r-35">
          <mxGeometry x="10" y="13.13" width="50" height="40" as="geometry" />
        </mxCell>
        <mxCell id="I_c4RysP7cvk3nYu3z4r-39" value="" style="group;shadow=1;" vertex="1" connectable="0" parent="1">
          <mxGeometry x="565" y="495" width="70" height="66.25" as="geometry" />
        </mxCell>
        <mxCell id="I_c4RysP7cvk3nYu3z4r-40" value="" style="triangle;whiteSpace=wrap;html=1;rotation=-90;fillColor=#fff2cc;strokeColor=#d6b656;shadow=1;" vertex="1" parent="I_c4RysP7cvk3nYu3z4r-39">
          <mxGeometry x="8.75" y="-8.75" width="52.5" height="70" as="geometry" />
        </mxCell>
        <mxCell id="I_c4RysP7cvk3nYu3z4r-41" style="edgeStyle=orthogonalEdgeStyle;rounded=0;orthogonalLoop=1;jettySize=auto;html=1;shadow=1;" edge="1" parent="I_c4RysP7cvk3nYu3z4r-39" source="I_c4RysP7cvk3nYu3z4r-42">
          <mxGeometry relative="1" as="geometry">
            <mxPoint x="35" y="85" as="targetPoint" />
          </mxGeometry>
        </mxCell>
        <mxCell id="I_c4RysP7cvk3nYu3z4r-42" value="M3" style="text;html=1;align=center;verticalAlign=middle;resizable=0;points=[];autosize=1;strokeColor=none;fillColor=none;fontSize=20;shadow=1;" vertex="1" parent="I_c4RysP7cvk3nYu3z4r-39">
          <mxGeometry x="10" y="13.13" width="50" height="40" as="geometry" />
        </mxCell>
        <mxCell id="I_c4RysP7cvk3nYu3z4r-43" value="" style="endArrow=classic;html=1;rounded=0;exitX=0.5;exitY=1;exitDx=0;exitDy=0;entryX=1;entryY=0.5;entryDx=0;entryDy=0;shadow=1;" edge="1" parent="1" source="I_c4RysP7cvk3nYu3z4r-16" target="I_c4RysP7cvk3nYu3z4r-29">
          <mxGeometry width="50" height="50" relative="1" as="geometry">
            <mxPoint x="375" y="447" as="sourcePoint" />
            <mxPoint x="425" y="397" as="targetPoint" />
          </mxGeometry>
        </mxCell>
        <mxCell id="I_c4RysP7cvk3nYu3z4r-44" value="" style="endArrow=classic;html=1;rounded=0;exitX=0.5;exitY=1;exitDx=0;exitDy=0;entryX=1;entryY=0.5;entryDx=0;entryDy=0;shadow=1;" edge="1" parent="1">
          <mxGeometry width="50" height="50" relative="1" as="geometry">
            <mxPoint x="599.41" y="440" as="sourcePoint" />
            <mxPoint x="599.41" y="495" as="targetPoint" />
          </mxGeometry>
        </mxCell>
        <mxCell id="I_c4RysP7cvk3nYu3z4r-45" value="" style="endArrow=classic;html=1;rounded=0;exitX=0.5;exitY=1;exitDx=0;exitDy=0;entryX=1;entryY=0.5;entryDx=0;entryDy=0;shadow=1;" edge="1" parent="1">
          <mxGeometry width="50" height="50" relative="1" as="geometry">
            <mxPoint x="519.41" y="440" as="sourcePoint" />
            <mxPoint x="519.41" y="495" as="targetPoint" />
          </mxGeometry>
        </mxCell>
        <mxCell id="I_c4RysP7cvk3nYu3z4r-46" value="操作系统调度器" style="rounded=0;whiteSpace=wrap;html=1;fillColor=#e1d5e7;strokeColor=#9673a6;shadow=1;" vertex="1" parent="1">
          <mxGeometry x="355" y="575" width="470" height="45" as="geometry" />
        </mxCell>
        <mxCell id="I_c4RysP7cvk3nYu3z4r-47" value="CPU" style="rounded=1;whiteSpace=wrap;html=1;fillColor=#dae8fc;strokeColor=#6c8ebf;shadow=1;" vertex="1" parent="1">
          <mxGeometry x="385" y="670" width="70" height="20" as="geometry" />
        </mxCell>
        <mxCell id="I_c4RysP7cvk3nYu3z4r-48" value="CPU" style="rounded=1;whiteSpace=wrap;html=1;fillColor=#dae8fc;strokeColor=#6c8ebf;shadow=1;" vertex="1" parent="1">
          <mxGeometry x="658.5" y="670" width="70" height="20" as="geometry" />
        </mxCell>
        <mxCell id="I_c4RysP7cvk3nYu3z4r-49" value="CPU" style="rounded=1;whiteSpace=wrap;html=1;fillColor=#dae8fc;strokeColor=#6c8ebf;shadow=1;" vertex="1" parent="1">
          <mxGeometry x="567" y="670" width="70" height="20" as="geometry" />
        </mxCell>
        <mxCell id="I_c4RysP7cvk3nYu3z4r-50" value="CPU" style="rounded=1;whiteSpace=wrap;html=1;fillColor=#dae8fc;strokeColor=#6c8ebf;shadow=1;" vertex="1" parent="1">
          <mxGeometry x="476" y="670" width="70" height="20" as="geometry" />
        </mxCell>
        <mxCell id="I_c4RysP7cvk3nYu3z4r-51" style="edgeStyle=orthogonalEdgeStyle;rounded=0;orthogonalLoop=1;jettySize=auto;html=1;entryX=0.139;entryY=0.916;entryDx=0;entryDy=0;entryPerimeter=0;shadow=1;" edge="1" parent="1" source="I_c4RysP7cvk3nYu3z4r-47" target="I_c4RysP7cvk3nYu3z4r-46">
          <mxGeometry relative="1" as="geometry" />
        </mxCell>
        <mxCell id="I_c4RysP7cvk3nYu3z4r-52" style="edgeStyle=orthogonalEdgeStyle;rounded=0;orthogonalLoop=1;jettySize=auto;html=1;entryX=0.333;entryY=0.886;entryDx=0;entryDy=0;entryPerimeter=0;shadow=1;" edge="1" parent="1" source="I_c4RysP7cvk3nYu3z4r-50" target="I_c4RysP7cvk3nYu3z4r-46">
          <mxGeometry relative="1" as="geometry" />
        </mxCell>
        <mxCell id="I_c4RysP7cvk3nYu3z4r-53" style="edgeStyle=orthogonalEdgeStyle;rounded=0;orthogonalLoop=1;jettySize=auto;html=1;entryX=0.526;entryY=0.886;entryDx=0;entryDy=0;entryPerimeter=0;shadow=1;" edge="1" parent="1" source="I_c4RysP7cvk3nYu3z4r-49" target="I_c4RysP7cvk3nYu3z4r-46">
          <mxGeometry relative="1" as="geometry" />
        </mxCell>
        <mxCell id="I_c4RysP7cvk3nYu3z4r-54" style="edgeStyle=orthogonalEdgeStyle;rounded=0;orthogonalLoop=1;jettySize=auto;html=1;entryX=0.719;entryY=1.005;entryDx=0;entryDy=0;entryPerimeter=0;shadow=1;" edge="1" parent="1" source="I_c4RysP7cvk3nYu3z4r-48" target="I_c4RysP7cvk3nYu3z4r-46">
          <mxGeometry relative="1" as="geometry" />
        </mxCell>
        <mxCell id="I_c4RysP7cvk3nYu3z4r-55" value="&lt;font style=&quot;font-size: 31px;&quot;&gt;GMP模型&lt;/font&gt;" style="text;html=1;align=center;verticalAlign=middle;resizable=0;points=[];autosize=1;strokeColor=none;fillColor=none;fontSize=31;shadow=1;" vertex="1" parent="1">
          <mxGeometry x="477" y="690" width="160" height="50" as="geometry" />
        </mxCell>
        <mxCell id="I_c4RysP7cvk3nYu3z4r-56" value="本&lt;div&gt;地&lt;/div&gt;&lt;div&gt;P&lt;/div&gt;&lt;div&gt;队&lt;/div&gt;&lt;div&gt;列&lt;/div&gt;" style="text;html=1;align=center;verticalAlign=middle;resizable=0;points=[];autosize=1;strokeColor=none;fillColor=none;fontSize=21;textDirection=rtl;shadow=1;" vertex="1" parent="1">
          <mxGeometry x="655" y="185" width="40" height="140" as="geometry" />
        </mxCell>
      </root>
    </mxGraphModel>
  </diagram>
  <diagram id="eJ14tpnN406W_N9dXogf" name="第 2 页">
    <mxGraphModel dx="1046" dy="1338" grid="1" gridSize="10" guides="1" tooltips="1" connect="1" arrows="1" fold="1" page="1" pageScale="1" pageWidth="827" pageHeight="1169" math="0" shadow="0">
      <root>
        <mxCell id="0" />
        <mxCell id="1" parent="0" />
        <mxCell id="JtyTkl1Yu-pX1hB-O7y4-1" value="" style="group" vertex="1" connectable="0" parent="1">
          <mxGeometry x="920" y="100" width="740" height="1380" as="geometry" />
        </mxCell>
        <mxCell id="JtyTkl1Yu-pX1hB-O7y4-2" value="" style="edgeStyle=orthogonalEdgeStyle;rounded=0;orthogonalLoop=1;jettySize=auto;html=1;" edge="1" parent="JtyTkl1Yu-pX1hB-O7y4-1" source="JtyTkl1Yu-pX1hB-O7y4-3" target="JtyTkl1Yu-pX1hB-O7y4-4">
          <mxGeometry relative="1" as="geometry" />
        </mxCell>
        <mxCell id="JtyTkl1Yu-pX1hB-O7y4-3" value="开始" style="ellipse;whiteSpace=wrap;html=1;fontSize=22;" vertex="1" parent="JtyTkl1Yu-pX1hB-O7y4-1">
          <mxGeometry x="230" width="120" height="80" as="geometry" />
        </mxCell>
        <mxCell id="JtyTkl1Yu-pX1hB-O7y4-4" value="创建第一个线程M0" style="rounded=0;whiteSpace=wrap;html=1;fontSize=18;" vertex="1" parent="JtyTkl1Yu-pX1hB-O7y4-1">
          <mxGeometry x="230" y="135" width="120" height="55" as="geometry" />
        </mxCell>
        <mxCell id="JtyTkl1Yu-pX1hB-O7y4-5" value="创建第一个Go协程G0" style="rounded=0;whiteSpace=wrap;html=1;fontSize=18;" vertex="1" parent="JtyTkl1Yu-pX1hB-O7y4-1">
          <mxGeometry x="230" y="235" width="120" height="60" as="geometry" />
        </mxCell>
        <mxCell id="JtyTkl1Yu-pX1hB-O7y4-6" value="关联M0 G0" style="rounded=0;whiteSpace=wrap;html=1;fontSize=18;" vertex="1" parent="JtyTkl1Yu-pX1hB-O7y4-1">
          <mxGeometry x="230" y="330" width="120" height="60" as="geometry" />
        </mxCell>
        <mxCell id="JtyTkl1Yu-pX1hB-O7y4-7" value="调度初始化" style="rounded=0;whiteSpace=wrap;html=1;fontSize=18;" vertex="1" parent="JtyTkl1Yu-pX1hB-O7y4-1">
          <mxGeometry x="230" y="425" width="120" height="60" as="geometry" />
        </mxCell>
        <mxCell id="JtyTkl1Yu-pX1hB-O7y4-8" value="创建Main中的goroutine" style="rounded=0;whiteSpace=wrap;html=1;fontSize=18;" vertex="1" parent="JtyTkl1Yu-pX1hB-O7y4-1">
          <mxGeometry x="230" y="520" width="120" height="60" as="geometry" />
        </mxCell>
        <mxCell id="JtyTkl1Yu-pX1hB-O7y4-9" value="" style="edgeStyle=orthogonalEdgeStyle;rounded=0;orthogonalLoop=1;jettySize=auto;html=1;" edge="1" parent="JtyTkl1Yu-pX1hB-O7y4-1" source="JtyTkl1Yu-pX1hB-O7y4-10" target="JtyTkl1Yu-pX1hB-O7y4-12">
          <mxGeometry relative="1" as="geometry" />
        </mxCell>
        <mxCell id="JtyTkl1Yu-pX1hB-O7y4-10" value="启动M" style="rounded=0;whiteSpace=wrap;html=1;fontSize=18;" vertex="1" parent="JtyTkl1Yu-pX1hB-O7y4-1">
          <mxGeometry x="230" y="620" width="120" height="60" as="geometry" />
        </mxCell>
        <mxCell id="JtyTkl1Yu-pX1hB-O7y4-11" value="" style="edgeStyle=orthogonalEdgeStyle;rounded=0;orthogonalLoop=1;jettySize=auto;html=1;" edge="1" parent="JtyTkl1Yu-pX1hB-O7y4-1" source="JtyTkl1Yu-pX1hB-O7y4-12" target="JtyTkl1Yu-pX1hB-O7y4-17">
          <mxGeometry relative="1" as="geometry" />
        </mxCell>
        <mxCell id="JtyTkl1Yu-pX1hB-O7y4-12" value="M绑定P" style="rounded=0;whiteSpace=wrap;html=1;fontSize=18;" vertex="1" parent="JtyTkl1Yu-pX1hB-O7y4-1">
          <mxGeometry x="230" y="760" width="120" height="60" as="geometry" />
        </mxCell>
        <mxCell id="JtyTkl1Yu-pX1hB-O7y4-13" value="" style="edgeStyle=orthogonalEdgeStyle;rounded=0;orthogonalLoop=1;jettySize=auto;html=1;" edge="1" parent="JtyTkl1Yu-pX1hB-O7y4-1" source="JtyTkl1Yu-pX1hB-O7y4-17" target="JtyTkl1Yu-pX1hB-O7y4-18">
          <mxGeometry relative="1" as="geometry" />
        </mxCell>
        <mxCell id="JtyTkl1Yu-pX1hB-O7y4-14" value="N" style="edgeLabel;html=1;align=center;verticalAlign=middle;resizable=0;points=[];fontSize=18;" vertex="1" connectable="0" parent="JtyTkl1Yu-pX1hB-O7y4-13">
          <mxGeometry x="-0.3001" y="-1" relative="1" as="geometry">
            <mxPoint as="offset" />
          </mxGeometry>
        </mxCell>
        <mxCell id="JtyTkl1Yu-pX1hB-O7y4-15" value="" style="edgeStyle=orthogonalEdgeStyle;rounded=0;orthogonalLoop=1;jettySize=auto;html=1;" edge="1" parent="JtyTkl1Yu-pX1hB-O7y4-1" source="JtyTkl1Yu-pX1hB-O7y4-17" target="JtyTkl1Yu-pX1hB-O7y4-22">
          <mxGeometry relative="1" as="geometry" />
        </mxCell>
        <mxCell id="JtyTkl1Yu-pX1hB-O7y4-16" value="Y" style="edgeLabel;html=1;align=center;verticalAlign=middle;resizable=0;points=[];fontSize=18;" vertex="1" connectable="0" parent="JtyTkl1Yu-pX1hB-O7y4-15">
          <mxGeometry x="-0.4743" y="-1" relative="1" as="geometry">
            <mxPoint as="offset" />
          </mxGeometry>
        </mxCell>
        <mxCell id="JtyTkl1Yu-pX1hB-O7y4-17" value="M通过P可获得G？&lt;div&gt;偷取机制也算获得&lt;/div&gt;" style="rhombus;whiteSpace=wrap;html=1;fontSize=18;" vertex="1" parent="JtyTkl1Yu-pX1hB-O7y4-1">
          <mxGeometry x="175" y="860" width="230" height="80" as="geometry" />
        </mxCell>
        <mxCell id="JtyTkl1Yu-pX1hB-O7y4-18" value="M休眠" style="whiteSpace=wrap;html=1;" vertex="1" parent="JtyTkl1Yu-pX1hB-O7y4-1">
          <mxGeometry x="451" y="870" width="120" height="60" as="geometry" />
        </mxCell>
        <mxCell id="JtyTkl1Yu-pX1hB-O7y4-19" value="" style="endArrow=classic;html=1;rounded=0;exitX=0.5;exitY=0;exitDx=0;exitDy=0;" edge="1" parent="JtyTkl1Yu-pX1hB-O7y4-1" source="JtyTkl1Yu-pX1hB-O7y4-18">
          <mxGeometry width="50" height="50" relative="1" as="geometry">
            <mxPoint x="660" y="710" as="sourcePoint" />
            <mxPoint x="290" y="720" as="targetPoint" />
            <Array as="points">
              <mxPoint x="511" y="720" />
            </Array>
          </mxGeometry>
        </mxCell>
        <mxCell id="JtyTkl1Yu-pX1hB-O7y4-20" value="M被唤醒启动" style="edgeLabel;html=1;align=center;verticalAlign=middle;resizable=0;points=[];fontSize=18;" vertex="1" connectable="0" parent="JtyTkl1Yu-pX1hB-O7y4-19">
          <mxGeometry x="-0.6241" y="-2" relative="1" as="geometry">
            <mxPoint y="1" as="offset" />
          </mxGeometry>
        </mxCell>
        <mxCell id="JtyTkl1Yu-pX1hB-O7y4-21" value="" style="edgeStyle=orthogonalEdgeStyle;rounded=0;orthogonalLoop=1;jettySize=auto;html=1;" edge="1" parent="JtyTkl1Yu-pX1hB-O7y4-1" source="JtyTkl1Yu-pX1hB-O7y4-22" target="JtyTkl1Yu-pX1hB-O7y4-24">
          <mxGeometry relative="1" as="geometry" />
        </mxCell>
        <mxCell id="JtyTkl1Yu-pX1hB-O7y4-22" value="M设置G环境" style="whiteSpace=wrap;html=1;fontSize=18;" vertex="1" parent="JtyTkl1Yu-pX1hB-O7y4-1">
          <mxGeometry x="230" y="990" width="120" height="60" as="geometry" />
        </mxCell>
        <mxCell id="JtyTkl1Yu-pX1hB-O7y4-23" value="" style="edgeStyle=orthogonalEdgeStyle;rounded=0;orthogonalLoop=1;jettySize=auto;html=1;" edge="1" parent="JtyTkl1Yu-pX1hB-O7y4-1" source="JtyTkl1Yu-pX1hB-O7y4-24" target="JtyTkl1Yu-pX1hB-O7y4-29">
          <mxGeometry relative="1" as="geometry" />
        </mxCell>
        <mxCell id="JtyTkl1Yu-pX1hB-O7y4-24" value="M执行G" style="whiteSpace=wrap;html=1;fontSize=18;" vertex="1" parent="JtyTkl1Yu-pX1hB-O7y4-1">
          <mxGeometry x="230" y="1090" width="120" height="60" as="geometry" />
        </mxCell>
        <mxCell id="JtyTkl1Yu-pX1hB-O7y4-25" value="" style="edgeStyle=orthogonalEdgeStyle;rounded=0;orthogonalLoop=1;jettySize=auto;html=1;" edge="1" parent="JtyTkl1Yu-pX1hB-O7y4-1" source="JtyTkl1Yu-pX1hB-O7y4-29" target="JtyTkl1Yu-pX1hB-O7y4-36">
          <mxGeometry relative="1" as="geometry" />
        </mxCell>
        <mxCell id="JtyTkl1Yu-pX1hB-O7y4-26" value="Y" style="edgeLabel;html=1;align=center;verticalAlign=middle;resizable=0;points=[];fontSize=18;" vertex="1" connectable="0" parent="JtyTkl1Yu-pX1hB-O7y4-25">
          <mxGeometry x="-0.4222" y="-1" relative="1" as="geometry">
            <mxPoint as="offset" />
          </mxGeometry>
        </mxCell>
        <mxCell id="JtyTkl1Yu-pX1hB-O7y4-27" value="" style="edgeStyle=orthogonalEdgeStyle;rounded=0;orthogonalLoop=1;jettySize=auto;html=1;fontSize=18;" edge="1" parent="JtyTkl1Yu-pX1hB-O7y4-1" source="JtyTkl1Yu-pX1hB-O7y4-29" target="JtyTkl1Yu-pX1hB-O7y4-38">
          <mxGeometry relative="1" as="geometry" />
        </mxCell>
        <mxCell id="JtyTkl1Yu-pX1hB-O7y4-28" value="N" style="edgeLabel;html=1;align=center;verticalAlign=middle;resizable=0;points=[];" vertex="1" connectable="0" parent="JtyTkl1Yu-pX1hB-O7y4-27">
          <mxGeometry x="0.0939" y="-3" relative="1" as="geometry">
            <mxPoint as="offset" />
          </mxGeometry>
        </mxCell>
        <mxCell id="JtyTkl1Yu-pX1hB-O7y4-29" value="M是否阻塞&lt;div&gt;且满足移交条件？&lt;/div&gt;" style="rhombus;whiteSpace=wrap;html=1;fontSize=18;" vertex="1" parent="JtyTkl1Yu-pX1hB-O7y4-1">
          <mxGeometry x="170" y="1190" width="240" height="80" as="geometry" />
        </mxCell>
        <mxCell id="JtyTkl1Yu-pX1hB-O7y4-30" value="" style="endArrow=classic;html=1;rounded=0;exitX=0.5;exitY=1;exitDx=0;exitDy=0;entryX=0.5;entryY=0;entryDx=0;entryDy=0;" edge="1" parent="JtyTkl1Yu-pX1hB-O7y4-1" source="JtyTkl1Yu-pX1hB-O7y4-4" target="JtyTkl1Yu-pX1hB-O7y4-5">
          <mxGeometry width="50" height="50" relative="1" as="geometry">
            <mxPoint x="490" y="280" as="sourcePoint" />
            <mxPoint x="540" y="230" as="targetPoint" />
          </mxGeometry>
        </mxCell>
        <mxCell id="JtyTkl1Yu-pX1hB-O7y4-31" value="" style="endArrow=classic;html=1;rounded=0;exitX=0.5;exitY=1;exitDx=0;exitDy=0;entryX=0.5;entryY=0;entryDx=0;entryDy=0;" edge="1" parent="JtyTkl1Yu-pX1hB-O7y4-1" source="JtyTkl1Yu-pX1hB-O7y4-5" target="JtyTkl1Yu-pX1hB-O7y4-6">
          <mxGeometry width="50" height="50" relative="1" as="geometry">
            <mxPoint x="450" y="250" as="sourcePoint" />
            <mxPoint x="500" y="200" as="targetPoint" />
          </mxGeometry>
        </mxCell>
        <mxCell id="JtyTkl1Yu-pX1hB-O7y4-32" value="" style="endArrow=classic;html=1;rounded=0;exitX=0.5;exitY=1;exitDx=0;exitDy=0;entryX=0.5;entryY=0;entryDx=0;entryDy=0;" edge="1" parent="JtyTkl1Yu-pX1hB-O7y4-1" source="JtyTkl1Yu-pX1hB-O7y4-6" target="JtyTkl1Yu-pX1hB-O7y4-7">
          <mxGeometry width="50" height="50" relative="1" as="geometry">
            <mxPoint x="430" y="420" as="sourcePoint" />
            <mxPoint x="480" y="370" as="targetPoint" />
          </mxGeometry>
        </mxCell>
        <mxCell id="JtyTkl1Yu-pX1hB-O7y4-33" value="" style="endArrow=classic;html=1;rounded=0;exitX=0.5;exitY=1;exitDx=0;exitDy=0;entryX=0.5;entryY=0;entryDx=0;entryDy=0;" edge="1" parent="JtyTkl1Yu-pX1hB-O7y4-1" source="JtyTkl1Yu-pX1hB-O7y4-7" target="JtyTkl1Yu-pX1hB-O7y4-8">
          <mxGeometry width="50" height="50" relative="1" as="geometry">
            <mxPoint x="400" y="520" as="sourcePoint" />
            <mxPoint x="450" y="470" as="targetPoint" />
          </mxGeometry>
        </mxCell>
        <mxCell id="JtyTkl1Yu-pX1hB-O7y4-34" value="" style="endArrow=classic;html=1;rounded=0;exitX=0.5;exitY=1;exitDx=0;exitDy=0;entryX=0.5;entryY=0;entryDx=0;entryDy=0;" edge="1" parent="JtyTkl1Yu-pX1hB-O7y4-1" source="JtyTkl1Yu-pX1hB-O7y4-8" target="JtyTkl1Yu-pX1hB-O7y4-10">
          <mxGeometry width="50" height="50" relative="1" as="geometry">
            <mxPoint x="440" y="700" as="sourcePoint" />
            <mxPoint x="490" y="650" as="targetPoint" />
          </mxGeometry>
        </mxCell>
        <mxCell id="JtyTkl1Yu-pX1hB-O7y4-35" value="" style="edgeStyle=orthogonalEdgeStyle;rounded=0;orthogonalLoop=1;jettySize=auto;html=1;" edge="1" parent="JtyTkl1Yu-pX1hB-O7y4-1" source="JtyTkl1Yu-pX1hB-O7y4-36" target="JtyTkl1Yu-pX1hB-O7y4-43">
          <mxGeometry relative="1" as="geometry" />
        </mxCell>
        <mxCell id="JtyTkl1Yu-pX1hB-O7y4-36" value="M被挂起&lt;div&gt;P被移交&lt;/div&gt;" style="whiteSpace=wrap;html=1;fontSize=18;" vertex="1" parent="JtyTkl1Yu-pX1hB-O7y4-1">
          <mxGeometry x="230" y="1310" width="120" height="60" as="geometry" />
        </mxCell>
        <mxCell id="JtyTkl1Yu-pX1hB-O7y4-37" style="edgeStyle=orthogonalEdgeStyle;rounded=0;orthogonalLoop=1;jettySize=auto;html=1;entryX=0;entryY=0.5;entryDx=0;entryDy=0;" edge="1" parent="JtyTkl1Yu-pX1hB-O7y4-1" source="JtyTkl1Yu-pX1hB-O7y4-38" target="JtyTkl1Yu-pX1hB-O7y4-17">
          <mxGeometry relative="1" as="geometry">
            <mxPoint x="60.00000000000023" y="890" as="targetPoint" />
            <Array as="points">
              <mxPoint x="60" y="900" />
            </Array>
          </mxGeometry>
        </mxCell>
        <mxCell id="JtyTkl1Yu-pX1hB-O7y4-38" value="G退出" style="whiteSpace=wrap;html=1;fontSize=18;" vertex="1" parent="JtyTkl1Yu-pX1hB-O7y4-1">
          <mxGeometry y="1200" width="120" height="60" as="geometry" />
        </mxCell>
        <mxCell id="JtyTkl1Yu-pX1hB-O7y4-39" style="edgeStyle=orthogonalEdgeStyle;rounded=0;orthogonalLoop=1;jettySize=auto;html=1;" edge="1" parent="JtyTkl1Yu-pX1hB-O7y4-1" source="JtyTkl1Yu-pX1hB-O7y4-43">
          <mxGeometry relative="1" as="geometry">
            <mxPoint x="520" y="810" as="targetPoint" />
            <Array as="points">
              <mxPoint x="580" y="810" />
              <mxPoint x="570" y="810" />
            </Array>
          </mxGeometry>
        </mxCell>
        <mxCell id="JtyTkl1Yu-pX1hB-O7y4-40" value="Y&lt;div style=&quot;font-size: 18px;&quot;&gt;&lt;br style=&quot;font-size: 18px;&quot;&gt;&lt;/div&gt;" style="edgeLabel;html=1;align=center;verticalAlign=middle;resizable=0;points=[];fontSize=18;" vertex="1" connectable="0" parent="JtyTkl1Yu-pX1hB-O7y4-39">
          <mxGeometry x="-0.7599" relative="1" as="geometry">
            <mxPoint as="offset" />
          </mxGeometry>
        </mxCell>
        <mxCell id="JtyTkl1Yu-pX1hB-O7y4-41" style="edgeStyle=orthogonalEdgeStyle;rounded=0;orthogonalLoop=1;jettySize=auto;html=1;" edge="1" parent="JtyTkl1Yu-pX1hB-O7y4-1" source="JtyTkl1Yu-pX1hB-O7y4-43" target="JtyTkl1Yu-pX1hB-O7y4-45">
          <mxGeometry relative="1" as="geometry">
            <mxPoint x="710" y="260" as="targetPoint" />
            <Array as="points">
              <mxPoint x="820" y="1340" />
              <mxPoint x="820" y="640" />
            </Array>
          </mxGeometry>
        </mxCell>
        <mxCell id="JtyTkl1Yu-pX1hB-O7y4-42" value="N" style="edgeLabel;html=1;align=center;verticalAlign=middle;resizable=0;points=[];fontSize=18;" vertex="1" connectable="0" parent="JtyTkl1Yu-pX1hB-O7y4-41">
          <mxGeometry x="-0.9294" y="3" relative="1" as="geometry">
            <mxPoint as="offset" />
          </mxGeometry>
        </mxCell>
        <mxCell id="JtyTkl1Yu-pX1hB-O7y4-43" value="有正在休眠的线程？" style="rhombus;whiteSpace=wrap;html=1;fontSize=18;" vertex="1" parent="JtyTkl1Yu-pX1hB-O7y4-1">
          <mxGeometry x="470" y="1300" width="220" height="80" as="geometry" />
        </mxCell>
        <mxCell id="JtyTkl1Yu-pX1hB-O7y4-45" value="创建线程Mn" style="rounded=0;whiteSpace=wrap;html=1;fontSize=18;" vertex="1" parent="JtyTkl1Yu-pX1hB-O7y4-1">
          <mxGeometry x="670" y="620" width="120" height="60" as="geometry" />
        </mxCell>
        <mxCell id="JtyTkl1Yu-pX1hB-O7y4-46" value="创建协程G0" style="whiteSpace=wrap;html=1;fontSize=18;rounded=0;" vertex="1" parent="JtyTkl1Yu-pX1hB-O7y4-1">
          <mxGeometry x="520" y="620" width="120" height="60" as="geometry" />
        </mxCell>
        <mxCell id="JtyTkl1Yu-pX1hB-O7y4-47" value="" style="edgeStyle=orthogonalEdgeStyle;rounded=0;orthogonalLoop=1;jettySize=auto;html=1;" edge="1" parent="JtyTkl1Yu-pX1hB-O7y4-1" source="JtyTkl1Yu-pX1hB-O7y4-45" target="JtyTkl1Yu-pX1hB-O7y4-46">
          <mxGeometry relative="1" as="geometry" />
        </mxCell>
        <mxCell id="JtyTkl1Yu-pX1hB-O7y4-51" style="edgeStyle=orthogonalEdgeStyle;rounded=0;orthogonalLoop=1;jettySize=auto;html=1;entryX=1;entryY=0.5;entryDx=0;entryDy=0;" edge="1" parent="JtyTkl1Yu-pX1hB-O7y4-1" source="JtyTkl1Yu-pX1hB-O7y4-49" target="JtyTkl1Yu-pX1hB-O7y4-10">
          <mxGeometry relative="1" as="geometry" />
        </mxCell>
        <mxCell id="JtyTkl1Yu-pX1hB-O7y4-49" value="关联Mn G0" style="whiteSpace=wrap;html=1;fontSize=18;rounded=0;" vertex="1" parent="JtyTkl1Yu-pX1hB-O7y4-1">
          <mxGeometry x="380" y="620" width="120" height="60" as="geometry" />
        </mxCell>
        <mxCell id="JtyTkl1Yu-pX1hB-O7y4-50" value="" style="edgeStyle=orthogonalEdgeStyle;rounded=0;orthogonalLoop=1;jettySize=auto;html=1;" edge="1" parent="JtyTkl1Yu-pX1hB-O7y4-1" source="JtyTkl1Yu-pX1hB-O7y4-46" target="JtyTkl1Yu-pX1hB-O7y4-49">
          <mxGeometry relative="1" as="geometry" />
        </mxCell>
      </root>
    </mxGraphModel>
  </diagram>
</mxfile>
